# xmcd
#
# Track frame offsets:
#	150
#	16988
#	28619
#	44816
#	59606
#	75629
#	88928
#	100024
#	112457
#	128034
#	145042
#	163588
#	176047
#	189822
#	201040
#	215150
#	229584
#	243101
#	257649
#	269084
#
# Disc length: 3849 seconds
#
# Revision: 1
# Processed by: cddbd v1.5.2PL0 Copyright (c) Steve Scherf et al.
# Submitted via: audiograbber 1.83.01
#
DISCID=220f0714
DTITLE=Glen Campbell - Glen Campbell -The Platinum Collection
DYEAR=2006
DGENRE=Easy Listening
TTITLE0=Old Home Town
TTITLE1=I Love How You Love Me
TTITLE2=On The Wings Of My Victory
TTITLE3=Faithless Love
TTITLE4=A Lady Like You
TTITLE5=(Love Always) Letter To Home
TTITLE6=It's Just A Matter Of Time
TTITLE7=Cowpoke
TTITLE8=Call Home
TTITLE9=An Americal Trilogy
TTITLE10=Goodnight Lady
TTITLE11=After The Glitter Fades
TTITLE12=Tennessee
TTITLE13=Hang On Baby (Ease Your Mind)
TTITLE14=A Few Good Men
TTITLE15=I Was Too Busy Loving You
TTITLE16=Ruth
TTITLE17=A Woman Like You
TTITLE18=Blues (My Naughty Sweetie Gives To Me)
TTITLE19=Mull Of Kintyre
EXTD=
EXTT0=
EXTT1=
EXTT2=
EXTT3=
EXTT4=
EXTT5=
EXTT6=
EXTT7=
EXTT8=
EXTT9=
EXTT10=
EXTT11=
EXTT12=
EXTT13=
EXTT14=
EXTT15=
EXTT16=
EXTT17=
EXTT18=
EXTT19=
PLAYORDER=
